<?xml version="1.0" encoding="UTF-8"?>
<svg width="512px" height="512px" viewBox="0 0 512 512" version="1.1" xmlns="http://www.w3.org/2000/svg" xmlns:xlink="http://www.w3.org/1999/xlink">
    <!-- Generator: Sketch Beta 54 (76473) - https://sketchapp.com -->
    <title>Grayscale-App-Icon</title>
    <desc>Created with Sketch Beta.</desc>
    <g id="Grayscale-App-Icon" stroke="none" stroke-width="1" fill="none" fill-rule="evenodd">
        <path d="M50.5397934,104.431156 L212.388583,15.0771365 C229.725258,5.50584716 236.428958,3.0316363 244.305795,1.403866 C252.182632,-0.2239043 259.817368,-0.2239043 267.694205,1.403866 C275.571042,3.0316363 282.274742,5.50584716 299.611417,15.0771365 L461.460207,104.431156 C475.025715,111.920447 479.447925,115.407606 483.744644,120.052495 C488.041362,124.697383 491.105201,129.88863 493.094861,135.895129 C495.08452,141.901628 496,147.458437 496,162.954 L496,349.046 C496,364.541563 495.08452,370.098372 493.094861,376.104871 C491.105201,382.11137 488.041362,387.302617 483.744644,391.947505 C479.447925,396.592394 475.025715,400.079553 461.460207,407.568844 L299.611417,496.922863 C282.274742,506.494153 275.571042,508.968364 267.694205,510.596134 C259.817368,512.223904 252.182632,512.223904 244.305795,510.596134 C236.428958,508.968364 229.725258,506.494153 212.388583,496.922863 L50.5397934,407.568844 C36.974285,400.079553 32.5520752,396.592394 28.2553565,391.947505 C23.9586378,387.302617 20.8947986,382.11137 18.9051392,376.104871 C16.9154798,370.098372 16,364.541563 16,349.046 L16,162.954 C16,147.458437 16.9154798,141.901628 18.9051392,135.895129 C20.8947986,129.88863 23.9586378,124.697383 28.2553565,120.052495 C32.5520752,115.407606 36.974285,111.920447 50.5397934,104.431156 Z" id="Base" fill="#333333"></path>
        <path d="M99.810469,327.815508 L235.633298,261.059464 C243.888134,257.002265 246.989145,255.953466 250.618428,255.263466 C254.247711,254.573466 257.731403,254.573466 261.360686,255.263466 C264.989969,255.953466 268.09098,257.002265 276.345816,261.059464 L412.188247,327.825143 C416.153475,329.774027 417.788044,334.568361 415.839161,338.533589 C415.059787,340.119313 413.777374,341.402409 412.192064,342.182625 L276.569704,408.929707 C268.317019,412.991299 265.216562,414.041747 261.587643,414.733676 C257.958723,415.425605 254.475028,415.427456 250.845375,414.739383 C247.215722,414.05131 244.114151,413.004155 235.857156,408.951334 L99.8142793,342.17674 C95.8480178,340.229961 94.2109043,335.436494 96.1576839,331.470232 C96.9374981,329.881482 98.2221326,328.596166 99.810469,327.815508 Z" id="Bottom" fill="#5A5A5A" transform="translate(256.000000, 335.000000) scale(-1, -1) rotate(180.000000) translate(-256.000000, -335.000000) "></path>
        <path d="M99.810469,248.815508 L235.633298,182.059464 C243.888134,178.002265 246.989145,176.953466 250.618428,176.263466 C254.247711,175.573466 257.731403,175.573466 261.360686,176.263466 C264.989969,176.953466 268.09098,178.002265 276.345816,182.059464 L412.188247,248.825143 C416.153475,250.774027 417.788044,255.568361 415.839161,259.533589 C415.059787,261.119313 413.777374,262.402409 412.192064,263.182625 L276.569704,329.929707 C268.317019,333.991299 265.216562,335.041747 261.587643,335.733676 C257.958723,336.425605 254.475028,336.427456 250.845375,335.739383 C247.215722,335.05131 244.114151,334.004155 235.857156,329.951334 L99.8142793,263.17674 C95.8480178,261.229961 94.2109043,256.436494 96.1576839,252.470232 C96.9374981,250.881482 98.2221326,249.596166 99.810469,248.815508 Z" id="Middle" fill="#707070" transform="translate(256.000000, 256.000000) scale(-1, -1) rotate(180.000000) translate(-256.000000, -256.000000) "></path>
        <path d="M100.240707,168.85676 L235.931437,103.77063 C244.098084,99.8533731 247.14804,98.8407488 250.714649,98.1745487 C254.281258,97.5083485 257.697856,97.5083485 261.264465,98.1745487 C264.831074,98.8407488 267.88103,99.8533731 276.047677,103.77063 L411.758585,168.866439 C415.742285,170.777282 417.422668,175.555752 415.511826,179.539452 C414.724955,181.17991 413.402409,182.503148 411.762363,183.290878 L276.271845,248.3683 C268.107244,252.289837 265.057815,253.30406 261.491551,253.972127 C257.925287,254.640195 254.508687,254.641983 250.941726,253.977648 C247.374765,253.313312 244.324276,252.302282 236.155575,248.389291 L100.244478,183.28482 C96.2597803,181.37606 94.5769001,176.598469 96.4856599,172.613771 C97.2729138,170.970312 98.5976598,169.644873 100.240707,168.85676 Z" id="Top" fill="#9D9D9D" transform="translate(256.000000, 178.000000) scale(-1, -1) rotate(180.000000) translate(-256.000000, -178.000000) "></path>
        <path d="M165.613956,295.473519 L235.633298,261.059464 C243.888134,257.002265 246.989145,255.953466 250.618428,255.263466 C254.247711,254.573466 257.731403,254.573466 261.360686,255.263466 C264.989969,255.953466 268.09098,257.002265 276.345816,261.059464 L346.473,295.526523 L276.569704,329.929707 C268.317019,333.991299 265.216562,335.041747 261.587643,335.733676 C257.958723,336.425605 254.475028,336.427456 250.845375,335.739383 C247.215722,335.05131 244.114151,334.004155 235.857156,329.951334 L165.613956,295.473519 Z" id="Combined-Shape" fill="#8E8E8E"></path>
        <path d="M167.546175,215.523846 L235.633298,182.059464 C243.888134,178.002265 246.989145,176.953466 250.618428,176.263466 C254.247711,175.573466 257.731403,175.573466 261.360686,176.263466 C264.989969,176.953466 268.09098,178.002265 276.345816,182.059464 L344.542029,215.577463 L276.271845,248.3683 C268.107244,252.289837 265.057815,253.30406 261.491551,253.972127 C257.925287,254.640195 254.508687,254.641983 250.941726,253.977648 C247.374765,253.313312 244.324276,252.302282 236.155575,248.389291 L167.546175,215.523846 Z" id="Combined-Shape" fill="#C3C3C3"></path>
    </g>
</svg>